<svg width="406" height="306" viewBox="0 0 406 306" fill="none" xmlns="http://www.w3.org/2000/svg">
<g clip-path="url(#clip0_52_1118)">
<path opacity="0.18" d="M348.491 277.737C335.236 295.613 312.442 304.418 290.22 305.781C267.998 307.143 245.957 301.969 224.336 296.661C205.001 291.897 183.856 285.436 163.721 286.437C149.132 287.151 135.2 292.392 120.315 292.335C95.4349 292.249 75.3665 281.348 62.302 262.109C59.4528 257.894 56.9936 253.429 54.955 248.768C54.9366 248.682 54.9009 248.601 54.8502 248.53C38.765 211.928 40.709 166.941 62.8356 133.227C70.1922 122.011 79.4068 112.082 86.3441 100.609C92.5761 90.2982 96.8261 78.9299 102.544 68.343C122.488 31.551 161.481 6.61323 202.771 1.1435C217.309 -0.841583 232.084 -0.244796 246.415 2.90639C284.417 11.4254 318.55 38.6121 332.177 75.1087C341.058 98.9316 341.134 125.041 345.804 150.055C349.844 171.706 357.372 192.641 360.45 214.444C363.528 236.247 361.613 260.041 348.491 277.737Z" fill="#68E1FD"/>
<path opacity="0.18" d="M136.429 255.381C113.092 264.605 87.5543 264.405 62.302 262.109C59.4528 257.894 56.9936 253.429 54.9551 248.768C75.6951 245.364 96.6527 243.453 117.666 243.05C122.574 242.955 137.821 240.297 142.252 243.594C148.407 248.187 142.385 253.027 136.429 255.381Z" fill="#68E1FD"/>
<path opacity="0.18" d="M317.893 283.626L173.907 228.328V58.1183L317.893 113.416V283.626Z" fill="#68E1FD"/>
<path d="M122.955 193.508C122.955 193.508 133.228 212.919 135.143 219.018C137.058 225.117 136.896 243.089 136.896 243.089H131.303C131.303 243.089 131.303 224.983 128.93 221.905C126.557 218.827 113.331 203.257 113.331 203.257L122.955 193.508Z" fill="#473F47"/>
<path d="M124.099 195.843C124.099 195.843 117.867 221.019 114.646 226.613C111.425 232.206 102.611 242.421 102.611 242.421L97.8459 239.877C97.8459 239.877 110.053 223.859 109.376 219.161C108.7 214.463 106.965 196.529 106.965 196.529C106.965 196.529 115.58 191.86 124.099 195.843Z" fill="#473F47"/>
<path d="M136.287 188.953C147.117 188.953 155.898 180.173 155.898 169.342C155.898 158.512 147.117 149.731 136.287 149.731C125.456 149.731 116.676 158.512 116.676 169.342C116.676 180.173 125.456 188.953 136.287 188.953Z" fill="#68E1FD"/>
<path d="M103.011 159.747C103.011 159.747 98.046 162.281 99.8946 168.39C101.743 174.498 107.585 188.22 106.956 192.289C106.327 196.358 106.956 196.482 106.956 196.482C106.956 196.482 120.001 201.189 124.108 195.843C124.108 195.843 116.342 168.39 114.693 164.95C113.045 161.51 108.328 157.726 103.011 159.747Z" fill="white"/>
<path d="M105.555 173.307C106.045 174.807 106.723 176.238 107.575 177.566C108.004 178.357 108.518 179.099 109.109 179.777C110.786 181.578 113.302 182.264 115.551 183.265C115.953 183.416 116.324 183.639 116.647 183.922C116.982 184.301 117.247 184.736 117.428 185.208C118.648 187.877 120.287 190.583 122.965 191.793C121.869 187.581 120.773 183.379 119.496 179.224C119.313 178.481 119.011 177.773 118.6 177.128C118.107 176.511 117.518 175.977 116.857 175.546C113.998 173.478 111.263 171.382 108.423 169.352C107.47 168.666 106.441 167.884 105.622 169.133C104.917 170.219 105.231 172.154 105.555 173.307Z" fill="url(#paint0_linear_52_1118)"/>
<path d="M112.216 149.036C112.502 149.322 112.854 149.617 112.854 149.989C112.808 150.289 112.683 150.572 112.492 150.808C111.634 152.276 112.416 154.363 111.387 155.697C111.002 156.165 110.478 156.499 109.891 156.65C109.302 156.733 108.731 156.917 108.204 157.193C107.808 157.583 107.581 158.114 107.575 158.67C107.518 159.327 107.632 159.994 107.575 160.661C107.59 160.885 107.546 161.108 107.45 161.31C107.353 161.512 107.206 161.686 107.022 161.814C106.841 161.9 106.641 161.939 106.441 161.929C105.288 161.978 104.133 161.889 103.001 161.662C102.84 161.636 102.687 161.574 102.553 161.481C102.415 161.331 102.328 161.141 102.305 160.938C101.819 158.737 101.353 156.526 100.828 154.325C100.535 153.531 100.178 152.763 99.7611 152.028C99.3707 150.923 99.2371 149.743 99.3705 148.578C99.4967 147.706 99.7947 146.867 100.247 146.11C100.618 145.397 101.154 144.783 101.81 144.319C102.298 144.031 102.824 143.813 103.373 143.671C105.279 143.09 108.223 142.308 109.862 143.928C111.234 145.272 110.796 147.616 112.216 149.036Z" fill="#FCBDBA"/>
<path d="M112.406 151.504C112.006 151.256 110.691 151.78 110.215 151.771C108.662 151.723 107.356 152.485 106.136 151.552C105.205 150.679 104.581 149.529 104.354 148.274C104.345 148.207 104.345 148.14 104.354 148.073C104.366 147.987 104.399 147.905 104.45 147.835C105.031 146.997 106.203 146.882 107.194 146.663C108.959 146.158 110.547 145.167 111.778 143.804C112.11 143.531 112.331 143.144 112.397 142.718C112.378 142.476 112.301 142.241 112.174 142.034C112.046 141.827 111.871 141.653 111.663 141.527C111.04 141.126 110.343 140.854 109.613 140.727C108.883 140.599 108.135 140.618 107.413 140.784C105.977 141.118 104.558 141.525 103.163 142.003C101.82 142.385 100.428 142.613 99.0847 143.042C98.8013 143.127 98.5317 143.252 98.2843 143.414C97.9683 143.665 97.7222 143.993 97.5696 144.367C97.3301 144.851 97.2056 145.384 97.2056 145.925C97.2056 146.465 97.3301 146.998 97.5696 147.483C97.6719 147.625 97.7433 147.787 97.7792 147.959C97.7892 148.126 97.7698 148.294 97.722 148.455C97.3885 149.913 98.1223 151.371 98.8274 152.686L100.733 156.145C100.924 156.559 101.204 156.927 101.553 157.221C101.735 157.356 101.955 157.429 102.182 157.429C102.408 157.429 102.629 157.356 102.811 157.221C103.192 156.897 103.211 156.268 103.668 156.002C103.825 155.946 103.993 155.928 104.158 155.948C104.323 155.968 104.482 156.025 104.621 156.116C105.441 156.507 106.117 157.126 106.908 157.564C108.286 158.335 109.91 158.537 111.434 158.127C111.833 158.028 112.208 157.853 112.54 157.612C112.861 157.29 113.085 156.884 113.186 156.441C113.287 155.998 113.261 155.535 113.112 155.106C112.959 154.182 113.255 152.028 112.406 151.504Z" fill="#473F47"/>
<path d="M104.135 169.314C104.135 169.314 109.481 183.045 130.664 185.675L131.427 182.712C131.427 182.712 117.276 177.118 114.274 171.439C113.397 169.842 112.639 168.183 112.006 166.474C111.814 165.892 111.509 165.352 111.109 164.888C110.709 164.423 110.221 164.042 109.673 163.765C109.125 163.489 108.528 163.324 107.917 163.279C107.305 163.233 106.69 163.309 106.108 163.501C105.898 163.577 105.688 163.663 105.488 163.758C103.964 164.597 103.011 166.188 104.135 169.314Z" fill="white"/>
<path d="M134.991 182.102C134.971 182.48 134.812 182.837 134.543 183.103C135.903 183.608 137.341 183.873 138.793 183.884C139.058 183.856 139.324 183.931 139.536 184.094C139.812 184.399 139.593 184.894 139.326 185.209C138.224 186.443 136.703 187.225 135.057 187.4C133.985 187.608 132.874 187.429 131.922 186.895C131.256 186.408 130.698 185.788 130.283 185.075C130.15 184.918 130.076 184.719 130.076 184.513C130.076 184.307 130.15 184.108 130.283 183.951C130.455 183.636 130.693 182.998 131.045 182.845C131.42 182.77 131.805 182.77 132.179 182.845C133.113 182.617 133.99 181.997 134.991 182.102Z" fill="#FCBDBA"/>
<path d="M93.9295 242.765C93.7221 242.955 93.5959 243.218 93.5769 243.498C93.6226 243.733 93.747 243.945 93.9295 244.099C96.2241 246.593 98.9857 248.613 102.058 250.045C102.896 250.445 104.059 250.721 104.631 249.988C105.202 249.254 104.631 248.149 104.116 247.3C103.456 246.176 103.052 244.92 102.935 243.622C102.933 243.177 102.842 242.736 102.668 242.326C102.077 241.221 99.1324 240.068 97.9031 240.077C96.2546 240.049 94.9205 241.631 93.9295 242.765Z" fill="#68E1FD"/>
<path d="M129.445 247.072C129.389 247.191 129.363 247.322 129.368 247.453C129.374 247.584 129.411 247.712 129.476 247.826C129.542 247.94 129.634 248.037 129.744 248.108C129.855 248.179 129.981 248.222 130.112 248.234C133.328 249.243 136.71 249.618 140.07 249.34C141.022 249.263 142.147 248.93 142.271 248.015C142.395 247.1 141.318 246.424 140.489 245.938C139.358 245.284 138.383 244.393 137.63 243.327C137.403 242.955 137.105 242.631 136.753 242.374C135.696 241.707 132.57 242.174 131.512 242.793C130.121 243.555 129.749 245.595 129.445 247.072Z" fill="#68E1FD"/>
<path d="M130.75 173.278C130.846 173.454 130.972 173.612 131.122 173.745C131.359 173.922 131.627 174.054 131.912 174.136C135.276 175.308 138.812 176.308 142.395 175.994C142.776 175.983 143.15 175.889 143.49 175.717C143.663 175.628 143.806 175.49 143.903 175.321C143.999 175.152 144.044 174.959 144.034 174.765C143.994 174.608 143.968 174.449 143.957 174.288C143.957 173.678 144.91 173.583 145.187 173.021C145.246 172.839 145.25 172.644 145.197 172.461C145.144 172.277 145.038 172.114 144.891 171.992C144.624 171.715 144.291 171.515 144.034 171.229C144.473 170.986 144.846 170.64 145.12 170.219C145.249 170.006 145.311 169.759 145.295 169.51C145.28 169.261 145.189 169.023 145.034 168.828C144.767 168.542 144.291 168.39 144.262 167.999C144.234 167.608 144.596 167.408 144.824 167.132C145.044 166.787 145.125 166.372 145.053 165.969C144.981 165.567 144.76 165.206 144.434 164.959C143.755 164.489 142.93 164.276 142.109 164.359C141.296 164.454 140.478 164.492 139.66 164.473C139.56 164.476 139.462 164.457 139.37 164.42C139.278 164.382 139.195 164.326 139.126 164.254C138.955 164.035 139.059 163.72 139.126 163.463C139.475 162.624 139.624 161.715 139.559 160.808C139.495 159.901 139.219 159.022 138.754 158.241C138.588 157.939 138.337 157.692 138.032 157.531C137.728 157.37 137.382 157.302 137.039 157.336C136.823 157.406 136.625 157.524 136.46 157.68C136.295 157.837 136.168 158.029 136.086 158.241C135.938 158.67 135.835 159.114 135.781 159.566C135.305 162.262 134.028 165.14 131.303 166.15C130.836 166.322 130.426 166.226 130.111 166.655C129.899 167.053 129.8 167.501 129.826 167.951C129.693 169.674 129.967 171.404 130.626 173.002L130.75 173.278Z" fill="white"/>
<path d="M127.682 166.093H127.005C126.384 166.093 125.881 166.596 125.881 167.217V172.725C125.881 173.346 126.384 173.85 127.005 173.85H127.682C128.303 173.85 128.806 173.346 128.806 172.725V167.217C128.806 166.596 128.303 166.093 127.682 166.093Z" fill="white"/>
<path d="M304.581 268.989L160.595 213.691V15.8279L304.581 71.1351V268.989Z" fill="white"/>
<path opacity="0.42" d="M279.395 207.164L176.871 167.265V61.9871L279.395 101.886V207.164Z" fill="#68E1FD"/>
<path d="M179.997 155.325L199.322 137.067L215.96 152.971L242.536 133.313L276.355 190.106V201.217L179.997 162.701V155.325Z" fill="#68E1FD"/>
<path d="M203.524 110.138C207.676 110.138 211.043 105.21 211.043 99.1318C211.043 93.0532 207.676 88.1256 203.524 88.1256C199.372 88.1256 196.006 93.0532 196.006 99.1318C196.006 105.21 199.372 110.138 203.524 110.138Z" fill="#68E1FD"/>
<path d="M184.447 58.1183C187.415 58.1183 189.821 54.5942 189.821 50.2472C189.821 45.9001 187.415 42.3761 184.447 42.3761C181.478 42.3761 179.072 45.9001 179.072 50.2472C179.072 54.5942 181.478 58.1183 184.447 58.1183Z" fill="#68E1FD"/>
<path opacity="0.42" d="M223.135 64.8173L196.396 53.9159C195.748 53.6137 195.194 53.1394 194.796 52.5447C194.398 51.95 194.17 51.2576 194.138 50.5426C194.097 50.2602 194.136 49.9721 194.25 49.7106C194.364 49.4491 194.549 49.2246 194.784 49.0622C195.018 48.8999 195.293 48.8062 195.578 48.7916C195.863 48.7771 196.146 48.8422 196.396 48.9798L223.173 59.8907C223.816 60.199 224.363 60.677 224.754 61.2732C225.145 61.8693 225.367 62.561 225.394 63.2735C225.423 63.4721 225.413 63.6745 225.364 63.8691C225.314 64.0636 225.227 64.2465 225.106 64.4069C224.986 64.5674 224.834 64.7023 224.661 64.8039C224.488 64.9054 224.297 64.9715 224.098 64.9983C223.766 65.044 223.428 64.9805 223.135 64.8173Z" fill="#68E1FD"/>
<path opacity="0.42" d="M222.049 71.7831L196.32 61.301C195.764 61.1021 195.271 60.759 194.891 60.307C194.511 59.8549 194.257 59.3101 194.157 58.7281C194.157 57.7752 195.11 57.4322 196.32 57.9181L222.049 68.4002C222.607 68.5977 223.102 68.9402 223.484 69.3923C223.865 69.8444 224.12 70.39 224.221 70.9731C224.221 71.9069 223.249 72.269 222.049 71.7831Z" fill="#68E1FD"/>
<path opacity="0.42" d="M276.327 226.641L176.871 187.543V184.57L276.327 223.659V226.641Z" fill="#68E1FD"/>
<path opacity="0.42" d="M276.327 232.616L176.871 193.527V190.545L276.327 229.643V232.616Z" fill="#68E1FD"/>
<path opacity="0.42" d="M276.327 238.6L176.871 199.512V196.529L276.327 235.618V238.6Z" fill="#68E1FD"/>
<path opacity="0.42" d="M276.327 244.575L176.871 205.487V202.513L276.327 241.602V244.575Z" fill="#68E1FD"/>
<path opacity="0.42" d="M276.327 250.559L176.871 211.471V208.488L276.327 247.586V250.559Z" fill="#68E1FD"/>
<path d="M181.35 176.451C181.35 176.451 179.825 172.563 178.11 174.545C176.395 176.528 181.254 181.73 181.254 181.73C181.254 181.73 184.752 180.168 184.78 178.109C184.809 176.051 182.198 173.812 181.35 176.451Z" fill="#68E1FD"/>
<path d="M193.795 186.419C193.744 186.406 193.698 186.38 193.661 186.342L192.499 185.247C191.853 185.447 191.162 185.447 190.517 185.247C189.455 184.897 188.523 184.236 187.843 183.348C187.163 182.461 186.766 181.389 186.705 180.272C186.678 179.913 186.722 179.552 186.835 179.21C186.947 178.867 187.127 178.551 187.362 178.278C187.598 178.005 187.885 177.782 188.207 177.62C188.529 177.459 188.88 177.363 189.24 177.337C189.676 177.301 190.115 177.373 190.517 177.547C191.571 177.902 192.495 178.566 193.166 179.454C193.837 180.341 194.226 181.41 194.281 182.521C194.309 183.283 194.043 184.027 193.537 184.599L194.033 186.066C194.06 186.125 194.069 186.191 194.059 186.256C194.048 186.32 194.02 186.38 193.976 186.428C193.947 186.441 193.916 186.447 193.884 186.445C193.853 186.443 193.822 186.434 193.795 186.419ZM190.517 178.157C189.953 177.915 189.316 177.906 188.747 178.133C188.177 178.36 187.72 178.804 187.477 179.367C187.333 179.687 187.268 180.037 187.286 180.387C187.342 181.327 187.681 182.228 188.257 182.973C188.833 183.717 189.621 184.271 190.517 184.561C191.115 184.77 191.767 184.77 192.365 184.561C192.411 184.546 192.46 184.545 192.506 184.559C192.552 184.573 192.592 184.6 192.623 184.637L193.223 185.209L192.985 184.494C192.962 184.436 192.954 184.373 192.962 184.311C192.971 184.25 192.995 184.191 193.032 184.141C193.272 183.911 193.46 183.632 193.583 183.323C193.707 183.014 193.763 182.682 193.747 182.35C193.695 181.406 193.358 180.501 192.782 179.753C192.205 179.004 191.416 178.448 190.517 178.157Z" fill="#68E1FD"/>
<path d="M199.903 184.846C199.829 184.819 199.766 184.769 199.722 184.703L197.273 181.197C197.23 181.143 197.201 181.078 197.189 181.01C197.178 180.942 197.183 180.871 197.206 180.806C197.224 180.76 197.257 180.721 197.301 180.698C197.346 180.675 197.396 180.67 197.444 180.682L204.372 183.198C204.442 183.225 204.503 183.272 204.546 183.333C204.59 183.394 204.616 183.466 204.62 183.541C204.638 183.602 204.633 183.667 204.604 183.724C204.576 183.781 204.527 183.824 204.467 183.846L199.989 184.799L199.903 184.846ZM198.169 181.597L199.96 184.151L203.219 183.427L198.169 181.597Z" fill="#68E1FD"/>
<path d="M200.618 189.173H200.56C200.504 189.14 200.455 189.094 200.419 189.04C200.383 188.985 200.359 188.923 200.351 188.858L199.646 184.522C199.627 184.46 199.632 184.394 199.66 184.335C199.689 184.277 199.738 184.232 199.798 184.208L204.277 183.255C204.34 183.248 204.404 183.262 204.459 183.295C204.514 183.327 204.557 183.377 204.582 183.436C204.619 183.496 204.639 183.566 204.639 183.636C204.639 183.707 204.619 183.776 204.582 183.836L200.77 189.163C200.747 189.176 200.721 189.184 200.695 189.186C200.669 189.187 200.642 189.183 200.618 189.173ZM200.208 184.808L200.751 188.096L203.61 184.046L200.208 184.808Z" fill="#68E1FD"/>
</g>
<defs>
<linearGradient id="paint0_linear_52_1118" x1="132.646" y1="156.754" x2="87.078" y2="215.606" gradientUnits="userSpaceOnUse">
<stop offset="0.01"/>
<stop offset="0.08" stop-opacity="0.69"/>
<stop offset="0.21" stop-opacity="0.32"/>
<stop offset="1" stop-opacity="0"/>
</linearGradient>
<clipPath id="clip0_52_1118">
<rect width="406" height="306" fill="white"/>
</clipPath>
</defs>
</svg>
