<svg width="362" height="321" viewBox="0 0 362 321" fill="none" xmlns="http://www.w3.org/2000/svg">
<g clip-path="url(#clip0_80_16)">
<path opacity="0.18" d="M326.655 287.241C312.292 306.695 287.592 316.277 263.512 317.76C239.432 319.243 215.549 313.612 192.119 307.836C171.168 302.651 148.255 295.62 126.437 296.709C110.628 297.487 95.5313 303.19 79.4023 303.128C52.4415 303.035 30.6953 291.171 16.5385 270.235C13.4511 265.649 10.7863 260.789 8.5773 255.717C8.55729 255.624 8.51865 255.536 8.46372 255.458C-8.96631 215.627 -6.85984 166.672 17.1168 129.983C25.0883 117.778 35.0734 106.973 42.5907 94.4874C49.3438 83.2673 53.9491 70.8961 60.1446 59.3752C81.7566 19.3374 124.01 -7.80037 168.752 -13.7526C184.506 -15.9128 200.515 -15.2634 216.044 -11.8342C257.224 -2.56362 294.211 27.0214 308.977 66.7378C318.601 92.6623 318.683 121.076 323.743 148.296C328.121 171.856 336.278 194.639 339.614 218.365C342.949 242.091 340.873 267.985 326.655 287.241Z" fill="#68E1FD"/>
<path d="M185.309 317.595C183.549 317.595 181.772 317.569 180.027 317.517L180.066 316.311C182.572 316.385 185.129 316.406 187.646 316.373L187.663 317.58C186.88 317.59 186.095 317.595 185.309 317.595ZM195.296 317.315L195.222 316.11C197.731 315.969 200.272 315.771 202.775 315.522L202.908 316.722C200.386 316.974 197.825 317.174 195.296 317.315V317.315ZM172.401 317.127C169.871 316.943 167.314 316.701 164.801 316.407L164.956 315.209C167.449 315.5 169.987 315.74 172.498 315.923L172.401 317.127ZM210.483 315.799L210.293 314.606C212.786 314.246 215.298 313.828 217.758 313.362L218.005 314.546C215.526 315.015 212.995 315.437 210.483 315.799ZM157.244 315.358C154.745 314.954 152.221 314.491 149.745 313.979L150.014 312.799C152.472 313.307 154.975 313.767 157.456 314.167L157.244 315.358ZM225.46 312.966L225.156 311.793C227.603 311.217 230.064 310.581 232.47 309.901L232.831 311.059C230.406 311.744 227.926 312.385 225.46 312.966ZM142.321 312.273C139.869 311.652 137.401 310.97 134.987 310.243L135.369 309.092C137.765 309.813 140.214 310.49 142.647 311.106L142.321 312.273ZM240.101 308.831L239.685 307.691C242.059 306.905 244.448 306.055 246.785 305.165L247.256 306.286C244.901 307.183 242.494 308.039 240.101 308.831L240.101 308.831ZM127.74 307.885C125.359 307.052 122.963 306.153 120.619 305.213L121.111 304.1C123.437 305.033 125.815 305.925 128.178 306.752L127.74 307.885ZM254.264 303.436L253.739 302.337C256.019 301.351 258.312 300.298 260.552 299.207L261.13 300.283C258.872 301.382 256.562 302.442 254.264 303.436ZM113.637 302.232C111.348 301.194 109.05 300.09 106.808 298.949L107.406 297.884C109.631 299.016 111.911 300.112 114.182 301.143L113.637 302.232ZM267.837 296.832L267.208 295.783C269.396 294.595 271.579 293.346 273.697 292.071L274.374 293.091C272.241 294.377 270.041 295.635 267.837 296.832ZM100.147 295.372C97.97 294.139 95.7896 292.839 93.6672 291.508L94.3653 290.5C96.4713 291.82 98.6349 293.111 100.796 294.334L100.147 295.372ZM280.727 289.069L280.001 288.079C282.061 286.709 284.116 285.275 286.11 283.816L286.883 284.774C284.874 286.244 282.803 287.689 280.727 289.069ZM87.3813 287.368C85.3338 285.952 83.2885 284.469 81.3018 282.959L82.0934 282.016C84.065 283.514 86.0948 284.986 88.1265 286.391L87.3813 287.368ZM292.828 280.216L292.01 279.292C293.93 277.75 295.84 276.144 297.689 274.516L298.55 275.403C296.687 277.043 294.762 278.662 292.828 280.216ZM75.4408 278.292C73.534 276.703 71.6395 275.049 69.8103 273.378L70.6887 272.506C72.5042 274.165 74.3841 275.806 76.2765 277.384L75.4408 278.292ZM304.037 270.346L303.134 269.498C304.904 267.791 306.654 266.024 308.336 264.248L309.279 265.055C307.584 266.846 305.82 268.626 304.037 270.346V270.346ZM64.422 268.225C62.6725 266.474 60.9446 264.664 59.2864 262.845L60.2446 262.054C61.8901 263.859 63.6047 265.655 65.3412 267.393L64.422 268.225ZM314.262 259.543L313.282 258.776C314.881 256.924 316.455 255.013 317.962 253.095L318.978 253.818C317.459 255.751 315.873 257.677 314.262 259.543ZM54.4144 257.25C52.8433 255.361 51.2962 253.409 49.8162 251.451L50.8456 250.746C52.3146 252.689 53.8498 254.625 55.4092 256.501L54.4144 257.25ZM323.414 247.893L322.365 247.215C323.779 245.232 325.165 243.192 326.482 241.148L327.564 241.781C326.235 243.839 324.839 245.896 323.414 247.893ZM45.5019 245.46C44.1197 243.443 42.7668 241.368 41.4806 239.29L42.5733 238.677C43.8499 240.739 45.1925 242.799 46.5642 244.8L45.5019 245.46ZM331.415 235.491L330.305 234.908C331.523 232.81 332.706 230.655 333.823 228.503L334.96 229.039C333.835 231.206 332.643 233.377 331.415 235.491ZM37.7607 232.952C36.5776 230.824 35.4305 228.64 34.3512 226.462L35.4983 225.946C36.5696 228.108 37.7078 230.275 38.8819 232.387L37.7607 232.952ZM338.19 222.437L337.028 221.952C338.039 219.754 339.009 217.504 339.913 215.263L341.098 215.696C340.187 217.954 339.208 220.222 338.19 222.437V222.437ZM31.2587 219.831C30.2862 217.609 29.3549 215.336 28.4908 213.074L29.6832 212.661C30.5404 214.906 31.4646 217.162 32.4293 219.366L31.2587 219.831ZM343.676 208.832L342.471 208.453C343.263 206.182 344.01 203.861 344.691 201.554L345.913 201.881C345.226 204.206 344.473 206.545 343.676 208.832L343.676 208.832ZM26.0472 206.186C25.2924 203.885 24.5832 201.534 23.9393 199.198L25.1663 198.891C25.8053 201.21 26.5092 203.543 27.2581 205.826L26.0472 206.186ZM347.81 194.838L346.574 194.564C347.142 192.237 347.661 189.86 348.118 187.501L349.365 187.719C348.906 190.097 348.383 192.492 347.81 194.838L347.81 194.838ZM22.1727 192.124C21.6437 189.766 21.1649 187.363 20.7499 184.981L22.0011 184.783C22.4133 187.147 22.8884 189.532 23.4134 191.872L22.1727 192.124ZM350.575 180.541L349.317 180.377C349.658 178.012 349.946 175.601 350.174 173.209L351.437 173.318C351.208 175.728 350.918 178.158 350.575 180.541L350.575 180.541ZM19.6727 177.784C19.3735 175.394 19.1279 172.959 18.9424 170.548L20.2079 170.46C20.3915 172.853 20.6356 175.269 20.9326 177.641L19.6727 177.784ZM351.954 166.065L350.687 166.011C350.799 163.618 350.857 161.191 350.857 158.798H352.126C352.126 161.209 352.068 163.655 351.954 166.065L351.954 166.065ZM18.5581 163.287C18.5147 161.806 18.4928 160.295 18.4924 158.798C18.4924 157.868 18.5008 156.941 18.5175 156.015L19.7861 156.036C19.7693 156.955 19.761 157.876 19.761 158.798C19.7613 160.284 19.7833 161.784 19.826 163.254L18.5581 163.287ZM350.848 157.113C350.822 154.719 350.737 152.292 350.598 149.9L351.864 149.833C352.005 152.243 352.09 154.688 352.116 157.1L350.848 157.113ZM20.0872 148.827L18.8211 148.752C18.9794 146.339 19.198 143.902 19.4703 141.508L20.7314 141.638C20.461 144.014 20.2445 146.432 20.0872 148.827ZM350.005 142.708C349.751 140.327 349.436 137.918 349.068 135.548L350.323 135.372C350.694 137.76 351.011 140.187 351.267 142.586L350.005 142.708ZM21.719 134.485L20.4653 134.301C20.854 131.912 21.3056 129.504 21.8076 127.143L23.0508 127.383C22.5528 129.725 22.1046 132.115 21.719 134.485ZM347.788 128.438C347.304 126.082 346.758 123.711 346.165 121.39L347.398 121.105C347.995 123.443 348.545 125.833 349.033 128.206L347.788 128.438ZM24.7239 120.346L23.4934 120.053C24.1094 117.714 24.7917 115.356 25.5214 113.043L26.736 113.39C26.0122 115.685 25.3352 118.025 24.7239 120.346ZM344.203 114.421C343.495 112.122 342.722 109.809 341.905 107.546L343.105 107.153C343.928 109.433 344.708 111.765 345.421 114.081L344.203 114.421ZM29.0908 106.511L27.8941 106.111C28.7371 103.828 29.6474 101.534 30.5994 99.2934L31.7757 99.7462C30.8307 101.97 29.9273 104.246 29.0908 106.511H29.0908ZM339.277 100.778C338.351 98.5561 337.36 96.3258 336.331 94.1491L337.488 93.6532C338.525 95.8467 339.524 98.0941 340.456 100.333L339.277 100.778ZM34.7844 93.1086L33.6317 92.6045C34.6912 90.4081 35.8188 88.2055 36.9834 86.058L38.1107 86.6116C36.9549 88.7429 35.8359 90.9287 34.7844 93.1086ZM333.068 87.653C331.933 85.5211 330.73 83.3848 329.493 81.3043L330.597 80.7093C331.843 82.8061 333.055 84.9586 334.199 87.1069L333.068 87.653ZM41.747 80.2689L40.6475 79.6663C41.913 77.5745 43.2475 75.4807 44.6143 73.4435L45.6834 74.0933C44.3272 76.1151 43.0026 78.1931 41.747 80.2689H41.747ZM325.615 75.1154C324.275 73.0841 322.871 71.0604 321.443 69.1005L322.485 68.4124C323.924 70.3874 325.339 72.4264 326.689 74.4733L325.615 75.1154ZM49.9121 68.0972L48.8752 67.4014C50.3377 65.427 51.8667 63.4591 53.4208 61.5522L54.4231 62.2922C52.881 64.1849 51.3631 66.1378 49.9121 68.0972ZM316.986 63.2715C315.457 61.3655 313.866 59.4707 312.253 57.6399L313.226 56.8642C314.85 58.7092 316.454 60.6182 317.995 62.5386L316.986 63.2715ZM59.2065 56.6908L58.2408 55.9078C59.882 54.0728 61.5925 52.2464 63.3247 50.4792L64.252 51.303C62.5331 53.0569 60.8356 54.8697 59.2065 56.6908ZM307.256 52.2178C305.552 50.4521 303.784 48.7021 302.002 47.0169L302.897 46.1601C304.692 47.8586 306.473 49.6216 308.19 51.4006L307.256 52.2178ZM69.5483 46.1413L68.6613 45.278C70.4752 43.5887 72.3524 41.9185 74.2401 40.3141L75.0849 41.2151C73.2116 42.8071 71.3487 44.4646 69.5483 46.1413H69.5483ZM296.506 42.0477C294.639 40.4353 292.711 38.845 290.775 37.3211L291.584 36.3906C293.534 37.9261 295.477 39.5284 297.359 41.1532L296.506 42.0477ZM80.8502 36.5339L80.0493 35.5976C82.0113 34.0766 84.039 32.5765 86.0762 31.139L86.8319 32.109C84.8098 33.5359 82.7973 35.0244 80.8502 36.5339ZM284.824 32.8466C282.809 31.4023 280.736 29.9851 278.662 28.6345L279.378 27.638C281.468 28.9986 283.557 30.4264 285.587 31.8819L284.824 32.8466ZM93.0171 27.9496L92.3091 26.9478C94.409 25.6028 96.5707 24.2859 98.7347 23.0326L99.3937 24.0645C97.2465 25.308 95.1011 26.6153 93.0171 27.9496ZM272.303 24.6945C270.159 23.4315 267.958 22.2003 265.76 21.0346L266.377 19.9797C268.592 21.1543 270.81 22.3952 272.971 23.6674L272.303 24.6945ZM105.949 20.4618L105.34 19.4022C107.561 18.245 109.839 17.1223 112.11 16.0648L112.668 17.1497C110.414 18.199 108.154 19.3131 105.949 20.4618L105.949 20.4618ZM259.046 17.6639C256.789 16.5934 254.476 15.5592 252.173 14.5901L252.686 13.4857C255.007 14.4621 257.337 15.5043 259.612 16.5831L259.046 17.6639ZM119.536 14.1352L119.032 13.0273C121.354 12.0694 123.728 11.1507 126.09 10.2966L126.541 11.4258C124.197 12.2731 121.84 13.1847 119.536 14.1352L119.536 14.1352ZM245.157 11.82C242.808 10.9529 240.404 10.1256 238.012 9.36147L238.415 8.21638C240.826 8.98675 243.249 9.8202 245.616 10.6944L245.157 11.82ZM133.686 9.02034L133.291 7.8729C135.702 7.12052 138.162 6.41206 140.601 5.76787L140.941 6.93124C138.519 7.57069 136.078 8.27352 133.686 9.02032L133.686 9.02034ZM230.772 7.22488C228.352 6.56831 225.885 5.95685 223.437 5.4076L223.728 4.23244C226.195 4.78582 228.681 5.402 231.12 6.06329L230.772 7.22488ZM148.289 5.1626L148.006 3.98538C150.478 3.44791 152.995 2.95823 155.489 2.53015L155.714 3.71828C153.239 4.1434 150.741 4.62925 148.289 5.16258V5.1626ZM216.022 3.91462C213.552 3.47328 211.036 3.08059 208.543 2.74743L208.719 1.55164C211.231 1.88744 213.767 2.28309 216.256 2.72768L216.022 3.91462ZM163.202 2.60061L163.034 1.40363C165.545 1.08464 168.099 0.816352 170.625 0.607041L170.735 1.80991C168.229 2.01803 165.695 2.28396 163.202 2.6006L163.202 2.60061ZM201.016 1.90778C198.517 1.68372 195.974 1.51095 193.456 1.39508L193.518 0.18869C196.054 0.305711 198.617 0.479691 201.135 0.705503L201.016 1.90778ZM178.299 1.34673L178.246 0.14034C180.577 0.0477603 182.953 0.000590468 185.309 0L185.883 0.000860029L185.88 1.20846L185.309 1.20756C182.971 1.20815 180.613 1.25503 178.299 1.34672V1.34673Z" fill="#E6E6E6"/>
<path d="M185.708 316.771V250.738C185.709 249.813 186.095 248.926 186.783 248.272C187.47 247.618 188.401 247.25 189.373 247.249H197.696C198.668 247.25 199.599 247.618 200.287 248.272C200.974 248.926 201.36 249.813 201.361 250.738V316.771C201.36 317.696 200.974 318.583 200.287 319.237C199.599 319.891 198.668 320.259 197.696 320.26H189.373C188.401 320.259 187.47 319.891 186.783 319.237C186.095 318.583 185.709 317.696 185.708 316.771Z" fill="#2F2E41"/>
<path d="M169.246 316.771V250.738C169.247 249.813 169.634 248.926 170.321 248.272C171.008 247.618 171.94 247.25 172.912 247.249H181.235C182.206 247.25 183.138 247.618 183.825 248.272C184.512 248.926 184.899 249.813 184.9 250.738V316.771C184.899 317.696 184.512 318.583 183.825 319.237C183.138 319.891 182.206 320.259 181.235 320.26H172.912C171.94 320.259 171.008 319.891 170.321 319.237C169.634 318.583 169.247 317.696 169.246 316.771Z" fill="#2F2E41"/>
<path d="M202.153 228.938H168.455C166.586 228.938 165.072 230.38 165.072 232.158V268.395C165.072 270.173 166.586 271.615 168.455 271.615H202.153C204.022 271.615 205.536 270.173 205.536 268.395V232.158C205.536 230.38 204.022 228.938 202.153 228.938Z" fill="#2F2E41"/>
<path d="M128.652 125.193C128.652 125.193 111.646 132.714 97.2545 137.701C88.324 118.51 75.4583 119.229 75.4583 119.229L67.6582 124.341L69.0648 132.01L68.6812 144.547L66.6353 151.12L69.5711 151.625L71.2296 151.911L71.4796 151.696C71.0658 153.257 70.8983 154.868 70.9828 156.476L144.764 145.521C144.764 145.521 142.206 134.201 128.652 125.193Z" fill="#E6E6E6"/>
<path d="M106.865 223.898L111.812 230.269C112.923 231.7 115.041 232.002 116.544 230.945L172.329 191.699C173.832 190.641 174.15 188.625 173.039 187.194L168.093 180.823C166.982 179.392 164.864 179.09 163.361 180.147L107.575 219.393C106.073 220.451 105.755 222.467 106.865 223.898Z" fill="#00CBF5"/>
<path d="M201.922 178.658L194.57 182.372C192.919 183.206 192.291 185.156 193.167 186.727L225.684 245.055C226.56 246.626 228.608 247.224 230.259 246.39L237.611 242.676C239.261 241.843 239.889 239.893 239.013 238.322L206.496 179.993C205.62 178.422 203.572 177.824 201.922 178.658Z" fill="#00CBF5"/>
<path d="M222.531 204.545L210.524 212.122C208.689 213.049 206.492 212.527 205.616 210.955L192.356 187.17C191.48 185.598 192.257 183.573 194.092 182.646L202.265 178.518C204.099 177.591 206.297 178.113 207.173 179.685L224.267 200.022C225.143 201.593 224.366 203.618 222.531 204.545Z" fill="#CCCCCC"/>
<path d="M140.71 197.577L148.514 207.443C149.128 208.066 149.977 208.431 150.874 208.458C151.771 208.485 152.642 208.172 153.296 207.587L173.922 189.158C174.576 188.574 174.959 187.766 174.988 186.912C175.016 186.058 174.687 185.229 174.073 184.606L168.377 178.829C167.763 178.206 166.914 177.841 166.017 177.814C165.12 177.787 164.249 178.1 163.595 178.685L140.861 193.025C140.207 193.609 139.824 194.417 139.795 195.271C139.767 196.125 140.096 196.954 140.71 197.577Z" fill="#CCCCCC"/>
<path d="M204.212 177.709H166.396C164.527 177.709 163.012 179.151 163.012 180.93V257.409C163.012 259.188 164.527 260.63 166.396 260.63H204.212C206.081 260.63 207.595 259.188 207.595 257.409V180.93C207.595 179.151 206.081 177.709 204.212 177.709Z" fill="#CCCCCC"/>
<path d="M185.083 172.718C201.751 172.718 215.262 159.856 215.262 143.99C215.262 128.123 201.751 115.261 185.083 115.261C168.415 115.261 154.904 128.123 154.904 143.99C154.904 159.856 168.415 172.718 185.083 172.718Z" fill="#00CBF5"/>
<path d="M188.601 153.582C186.736 153.532 184.415 153.47 182.63 152.228C182.097 151.842 181.66 151.351 181.348 150.788C181.036 150.224 180.858 149.603 180.825 148.967C180.793 148.516 180.871 148.063 181.053 147.645C181.235 147.226 181.516 146.854 181.874 146.556C182.807 145.805 184.17 145.628 185.64 146.04L184.118 135.451L185.235 135.306L187.024 147.754L186.091 147.347C185.01 146.874 183.525 146.634 182.602 147.376C182.376 147.57 182.199 147.811 182.086 148.081C181.974 148.35 181.928 148.641 181.952 148.93C181.979 149.403 182.114 149.865 182.345 150.284C182.577 150.704 182.901 151.071 183.295 151.36C184.684 152.327 186.534 152.452 188.633 152.508L188.601 153.582Z" fill="#2F2E41"/>
<path d="M178.592 136.364H172.518V137.438H178.592V136.364Z" fill="#2F2E41"/>
<path d="M197.764 136.364H191.69V137.438H197.764V136.364Z" fill="#2F2E41"/>
<path d="M165.146 121.54C160.255 121.009 156.467 116.547 156.05 112.021C155.555 106.635 158.85 101.521 163.37 98.499C168.096 95.3387 173.985 94.019 179.683 93.7285C190.798 93.202 201.722 96.6295 210.33 103.344C214.599 106.72 218.587 111.02 220.098 116.214C221.411 120.724 220.343 125.834 216.532 128.993C215.589 129.767 214.488 130.347 213.298 130.696C212.108 131.044 210.855 131.155 209.618 131.019C206.661 130.727 203.933 129.247 201.571 127.612C196.977 124.433 193.206 120.003 187.609 118.342C183.505 117.123 178.179 118.196 175.672 121.728C175.103 122.537 174.734 123.458 174.593 124.422C174.541 124.628 174.573 124.845 174.683 125.029C174.793 125.213 174.972 125.35 175.184 125.413C175.4 125.468 175.631 125.44 175.825 125.335C176.02 125.23 176.164 125.056 176.224 124.851C176.883 120.401 182.63 118.741 186.664 119.757C192.544 121.238 196.492 126.234 201.317 129.407C203.853 131.076 206.738 132.41 209.85 132.65C212.532 132.85 215.194 132.072 217.295 130.472C221.417 127.374 222.993 122.045 222.082 117.247C221.026 111.691 217.098 106.929 212.788 103.243C204.049 95.8479 192.705 91.8586 181.015 92.0699C175.053 92.2002 168.832 93.3719 163.695 96.3718C158.713 99.2817 154.862 104.15 154.358 109.809C153.915 114.79 156.723 119.999 161.542 122.181C162.678 122.694 163.896 123.021 165.146 123.15C166.226 123.267 166.217 121.656 165.146 121.54H165.146Z" fill="#2F2E41"/>
<path d="M71.1748 150.938L74.7551 149.842C75.1388 149.142 74.4367 149.591 74.7718 148.911C83.8301 130.515 75.4584 119.229 75.4584 119.229L68.9822 123.473C68.9663 123.438 68.9532 123.402 68.937 123.367C68.9371 123.367 67.7862 120.933 65.9961 122.759C65.9961 122.759 71.6223 135.783 65.3567 151.972L72.6453 155.137L75.4584 151.972L75.5223 151.668L70.4878 151.232L71.1748 150.938Z" fill="#CCCCCC"/>
<path d="M173.279 219.285C144.508 213.199 117.719 225.797 117.719 225.797L117.646 225.735L106.978 216.668L65.2927 151.911L75.4584 151.972C103.718 135.905 143.485 138.096 143.485 138.096C160.62 156.598 173.279 219.285 173.279 219.285Z" fill="#3F3D56"/>
<path opacity="0.1" d="M117.646 225.735L106.978 216.668L65.2927 151.911L75.4584 151.972C75.4584 151.972 115.975 202.912 117.646 225.735Z" fill="black"/>
<path d="M122.328 175.209C131.038 172.666 136.722 166.332 135.024 161.062C133.326 155.791 124.889 153.581 116.179 156.124C107.469 158.667 101.786 165 103.484 170.271C105.182 175.541 113.619 177.752 122.328 175.209Z" fill="#00CBF5"/>
<path d="M33.2764 120.513C30.9792 128.597 23.1108 133.603 23.1108 133.603C23.1108 133.603 18.9668 125.504 21.264 117.42C23.5612 109.336 31.4297 104.33 31.4297 104.33C31.4297 104.33 35.5736 112.43 33.2764 120.513Z" fill="#CCCCCC"/>
<path d="M12.3783 120.513C14.6755 128.597 22.5439 133.603 22.5439 133.603C22.5439 133.603 26.6879 125.504 24.3907 117.42C22.0935 109.336 14.225 104.33 14.225 104.33C14.225 104.33 10.0811 112.43 12.3783 120.513Z" fill="#CCCCCC"/>
<path d="M15.7537 118.776C22.0573 124.617 22.8273 133.597 22.8273 133.597C22.8273 133.597 13.3771 133.106 7.07351 127.264C0.76993 121.423 0 112.444 0 112.444C0 112.444 9.45017 112.935 15.7537 118.776Z" fill="#3F3D56"/>
<path d="M29.9007 118.776C23.5971 124.617 22.8271 133.597 22.8271 133.597C22.8271 133.597 32.2773 133.106 38.5809 127.264C44.8845 121.423 45.6544 112.444 45.6544 112.444C45.6544 112.444 36.2042 112.935 29.9007 118.776Z" fill="#3F3D56"/>
<path d="M349.622 211.768C347.325 219.851 339.456 224.858 339.456 224.858C339.456 224.858 335.312 216.758 337.609 208.674C339.907 200.591 347.775 195.584 347.775 195.584C347.775 195.584 351.919 203.684 349.622 211.768Z" fill="#CCCCCC"/>
<path d="M328.724 211.768C331.021 219.851 338.889 224.858 338.889 224.858C338.889 224.858 343.033 216.758 340.736 208.674C338.439 200.591 330.57 195.584 330.57 195.584C330.57 195.584 326.426 203.684 328.724 211.768Z" fill="#CCCCCC"/>
<path d="M332.099 210.03C338.403 215.872 339.173 224.851 339.173 224.851C339.173 224.851 329.723 224.36 323.419 218.518C317.115 212.677 316.345 203.698 316.345 203.698C316.345 203.698 325.796 204.189 332.099 210.03Z" fill="#3F3D56"/>
<path d="M346.246 210.03C339.943 215.872 339.173 224.851 339.173 224.851C339.173 224.851 348.623 224.36 354.927 218.518C361.23 212.677 362 203.698 362 203.698C362 203.698 352.55 204.189 346.246 210.03Z" fill="#3F3D56"/>
<path d="M251.476 319.926H120.653V321H251.476V319.926Z" fill="#3F3D56"/>
</g>
<defs>
<clipPath id="clip0_80_16">
<rect width="362" height="321" fill="white"/>
</clipPath>
</defs>
</svg>
