<svg width="599" height="526" viewBox="0 0 599 526" fill="none" xmlns="http://www.w3.org/2000/svg">
<path d="M32.0092 111.468C127.535 -18.2621 569.36 -43.6694 596.5 83C609.76 144.888 544.224 127.554 546.051 190.821C548.934 290.676 597.501 350.392 469.727 425.235C322.191 511.655 171.294 567.016 117.175 487.805C63.0562 408.594 -57.33 232.797 32.0092 111.468Z" fill="#D9D9D9" fill-opacity="0.2"/>
<path d="M50.7475 114.606C139.524 -6.00615 550.13 -29.6276 575.352 88.1383C587.676 145.676 526.77 129.56 528.468 188.38C531.148 281.217 576.282 336.735 457.537 406.318C320.425 486.663 180.191 538.133 129.896 464.49C79.6008 390.847 -32.2792 227.406 50.7475 114.606Z" fill="#D9D9D9" fill-opacity="0.4"/>
</svg>
